<svg width="79" height="80" viewBox="0 0 79 80" fill="none" xmlns="http://www.w3.org/2000/svg">
<g filter="url(#filter0_d_62_1150)">
<ellipse cx="39.5" cy="36" rx="35.5" ry="36" fill="#D9D9D9"/>
<path d="M73 36C73 54.8041 57.9753 70 39.5 70C21.0247 70 6 54.8041 6 36C6 17.1959 21.0247 2 39.5 2C57.9753 2 73 17.1959 73 36Z" stroke="#CBCBCB" stroke-width="4"/>
</g>
<path d="M49 25C48.4477 25 48 25.4477 48 26V27H47C46.4477 27 46 27.4477 46 28C46 28.5523 46.4477 29 47 29H48V30C48 30.5523 48.4477 31 49 31C49.5523 31 50 30.5523 50 30V29H51C51.5523 29 52 28.5523 52 28C52 27.4477 51.5523 27 51 27H50V26C50 25.4477 49.5523 25 49 25Z" fill="white"/>
<path d="M50.4669 33.6169C50.297 33.0914 49.7016 32.8578 49.1937 33.0746C48.6857 33.2915 48.4525 33.8794 48.6117 34.4083C49.113 36.074 49.1224 37.8572 48.6271 39.5397C48.0373 41.5433 46.7684 43.2792 45.0383 44.4493C43.3082 45.6195 41.2248 46.1509 39.1456 45.9525C37.0663 45.754 35.121 44.8381 33.6435 43.3618C32.166 41.8855 31.2484 39.9409 31.0482 37.8619C30.8481 35.7828 31.3778 33.6989 32.5465 31.9678C33.7152 30.2368 35.4501 28.9665 37.4532 28.375C39.1353 27.8783 40.9185 27.8863 42.5846 28.3862C43.1136 28.545 43.7014 28.3112 43.9178 27.8031C44.1342 27.295 43.9001 26.6998 43.3745 26.5304C41.276 25.854 39.0142 25.8216 36.8849 26.4503C34.4347 27.1738 32.3128 28.7275 30.8833 30.8449C29.4538 32.9623 28.8058 35.5112 29.0506 38.0542C29.2955 40.5972 30.4178 42.9757 32.2251 44.7814C34.0323 46.5871 36.4117 47.7075 38.9549 47.9502C41.4981 48.193 44.0465 47.5429 46.1626 46.1117C48.2788 44.6804 49.8308 42.5572 50.5523 40.1064C51.1793 37.9766 51.145 35.7148 50.4669 33.6169Z" fill="white"/>
<path d="M39.2944 34.3528L39.7106 34.1447C39.8436 34.0782 40 34.1749 40 34.3236V41C40 41.5523 40.4477 42 41 42C41.5523 42 42 41.5523 42 41V33C42 32.4477 41.5523 32 41 32H40.2361C40.0808 32 39.9277 32.0361 39.7889 32.1056L38.4944 32.7528C38.1914 32.9043 38 33.214 38 33.5528C38 34.2177 38.6997 34.6501 39.2944 34.3528Z" fill="white"/>
<defs>
<filter id="filter0_d_62_1150" x="0" y="0" width="79" height="80" filterUnits="userSpaceOnUse" color-interpolation-filters="sRGB">
<feFlood flood-opacity="0" result="BackgroundImageFix"/>
<feColorMatrix in="SourceAlpha" type="matrix" values="0 0 0 0 0 0 0 0 0 0 0 0 0 0 0 0 0 0 127 0" result="hardAlpha"/>
<feOffset dy="4"/>
<feGaussianBlur stdDeviation="2"/>
<feComposite in2="hardAlpha" operator="out"/>
<feColorMatrix type="matrix" values="0 0 0 0 0 0 0 0 0 0 0 0 0 0 0 0 0 0 0.25 0"/>
<feBlend mode="normal" in2="BackgroundImageFix" result="effect1_dropShadow_62_1150"/>
<feBlend mode="normal" in="SourceGraphic" in2="effect1_dropShadow_62_1150" result="shape"/>
</filter>
</defs>
</svg>
