<svg width="93" height="93" viewBox="0 0 93 93" fill="none" xmlns="http://www.w3.org/2000/svg">
<circle cx="46.5" cy="46.5" r="38.0932" fill="#4B89DC"/>
<circle cx="46.5" cy="46.5" r="45" stroke="#4B89DC" stroke-width="3"/>
<path d="M60.5 28C59.6716 28 59 28.6716 59 29.5V31H57.5C56.6716 31 56 31.6716 56 32.5C56 33.3284 56.6716 34 57.5 34H59V35.5C59 36.3284 59.6716 37 60.5 37C61.3285 37 62 36.3284 62 35.5V34H63.5C64.3285 34 65 33.3284 65 32.5C65 31.6716 64.3285 31 63.5 31H62V29.5C62 28.6716 61.3285 28 60.5 28Z" fill="white"/>
<path d="M62.7003 40.9253C62.4455 40.1371 61.5524 39.7866 60.7905 40.1119C60.0286 40.4372 59.6787 41.3191 59.9175 42.1124C60.6695 44.611 60.6836 47.2858 59.9407 49.8095C59.056 52.815 57.1527 55.4188 54.5575 57.174C51.9623 58.9292 48.8372 59.7264 45.7183 59.4287C42.5995 59.1311 39.6815 57.7571 37.4653 55.5426C35.249 53.3282 33.8726 50.4114 33.5724 47.2928C33.2721 44.1742 34.0667 41.0484 35.8198 38.4518C37.5729 35.8552 40.1751 33.9497 43.1798 33.0625C45.7029 32.3175 48.3777 32.3294 50.877 33.0793C51.6704 33.3174 52.552 32.9668 52.8767 32.2047C53.2014 31.4425 52.8502 30.5497 52.0617 30.2955C48.914 29.2809 45.5213 29.2324 42.3274 30.1755C38.6521 31.2607 35.4692 33.5913 33.3249 36.7674C31.1806 39.9434 30.2087 43.7668 30.576 47.5813C30.9432 51.3958 32.6267 54.9635 35.3376 57.6721C38.0484 60.3807 41.6175 62.0613 45.4323 62.4254C49.2471 62.7895 53.0697 61.8144 56.2439 59.6675C59.4182 57.5206 61.7462 54.3357 62.8284 50.6596C63.7689 47.4649 63.7175 44.0723 62.7003 40.9253Z" fill="white"/>
<path d="M45.9417 42.0292L46.5659 41.7171C46.7653 41.6173 47 41.7624 47 41.9854V52C47 52.8284 47.6716 53.5 48.5 53.5C49.3285 53.5 50 52.8284 50 52V40C50 39.1716 49.3285 38.5 48.5 38.5H47.3541C47.1213 38.5 46.8916 38.5542 46.6833 38.6584L44.7417 39.6292C44.2871 39.8564 44 40.321 44 40.8292C44 41.8265 45.0496 42.4752 45.9417 42.0292Z" fill="white"/>
</svg>
