<svg width="80" height="79" viewBox="0 0 80 79" fill="none" xmlns="http://www.w3.org/2000/svg">
<g filter="url(#filter0_d_187_384)">
<ellipse cx="40" cy="35.5" rx="36" ry="35.5" fill="#D9D9D9"/>
<path d="M74 35.5C74 53.9753 58.8041 69 40 69C21.1959 69 6 53.9753 6 35.5C6 17.0247 21.1959 2 40 2C58.8041 2 74 17.0247 74 35.5Z" stroke="#CBCBCB" stroke-width="4"/>
</g>
<path d="M49 23C48.4477 23 48 23.4477 48 24V25H47C46.4477 25 46 25.4477 46 26C46 26.5523 46.4477 27 47 27H48V28C48 28.5523 48.4477 29 49 29C49.5523 29 50 28.5523 50 28V27H51C51.5523 27 52 26.5523 52 26C52 25.4477 51.5523 25 51 25H50V24C50 23.4477 49.5523 23 49 23Z" fill="white"/>
<path d="M50.4669 31.6169C50.297 31.0914 49.7016 30.8578 49.1937 31.0746C48.6857 31.2915 48.4525 31.8794 48.6117 32.4083C49.113 34.074 49.1224 35.8572 48.6271 37.5397C48.0373 39.5433 46.7684 41.2792 45.0383 42.4493C43.3082 43.6195 41.2248 44.1509 39.1456 43.9525C37.0663 43.754 35.121 42.8381 33.6435 41.3618C32.166 39.8855 31.2484 37.9409 31.0482 35.8619C30.8481 33.7828 31.3778 31.6989 32.5465 29.9678C33.7152 28.2368 35.4501 26.9665 37.4532 26.375C39.1353 25.8783 40.9185 25.8863 42.5846 26.3862C43.1136 26.545 43.7014 26.3112 43.9178 25.8031C44.1342 25.295 43.9001 24.6998 43.3745 24.5304C41.276 23.854 39.0142 23.8216 36.8849 24.4503C34.4347 25.1738 32.3128 26.7275 30.8833 28.8449C29.4538 30.9623 28.8058 33.5112 29.0506 36.0542C29.2955 38.5972 30.4178 40.9757 32.2251 42.7814C34.0323 44.5871 36.4117 45.7075 38.9549 45.9502C41.4981 46.193 44.0465 45.5429 46.1626 44.1117C48.2788 42.6804 49.8308 40.5572 50.5523 38.1064C51.1793 35.9766 51.145 33.7148 50.4669 31.6169Z" fill="white"/>
<path d="M39.5 32H40.2597C40.6686 32 41 32.3314 41 32.7403C41 32.9084 40.9428 33.0715 40.8378 33.2028L37.2191 37.7261C37.0773 37.9034 37 38.1237 37 38.3508V39C37 39.5523 37.4477 40 38 40H42C42.5523 40 43 39.5523 43 39C43 38.4477 42.5523 38 42 38H39.9089C39.7425 38 39.6489 37.8086 39.7511 37.6772L42.5787 34.0417C42.8518 33.6906 43 33.2585 43 32.8138V32C43 30.8954 42.1046 30 41 30H39C37.8954 30 37 30.8954 37 32C37 32.5523 37.4477 33 38 33H38.5C38.7762 33 39 32.7761 39 32.5C39 32.2239 39.2239 32 39.5 32Z" fill="white"/>
<defs>
<filter id="filter0_d_187_384" x="0" y="0" width="80" height="79" filterUnits="userSpaceOnUse" color-interpolation-filters="sRGB">
<feFlood flood-opacity="0" result="BackgroundImageFix"/>
<feColorMatrix in="SourceAlpha" type="matrix" values="0 0 0 0 0 0 0 0 0 0 0 0 0 0 0 0 0 0 127 0" result="hardAlpha"/>
<feOffset dy="4"/>
<feGaussianBlur stdDeviation="2"/>
<feComposite in2="hardAlpha" operator="out"/>
<feColorMatrix type="matrix" values="0 0 0 0 0 0 0 0 0 0 0 0 0 0 0 0 0 0 0.25 0"/>
<feBlend mode="normal" in2="BackgroundImageFix" result="effect1_dropShadow_187_384"/>
<feBlend mode="normal" in="SourceGraphic" in2="effect1_dropShadow_187_384" result="shape"/>
</filter>
</defs>
</svg>
