<svg width="101" height="101" viewBox="0 0 101 101" fill="none" xmlns="http://www.w3.org/2000/svg">
<g filter="url(#filter0_d_187_466)">
<circle cx="50.5002" cy="46.5" r="38.0932" fill="#4B89DC"/>
<circle cx="50.5" cy="46.5" r="45" stroke="#4B89DC" stroke-width="3"/>
</g>
<path d="M63.7501 29C62.9677 29 62.3334 29.6343 62.3334 30.4167V31.8333H60.9168C60.1344 31.8333 59.5001 32.4676 59.5001 33.25C59.5001 34.0324 60.1344 34.6667 60.9168 34.6667H62.3334V36.0833C62.3334 36.8657 62.9677 37.5 63.7501 37.5C64.5325 37.5 65.1668 36.8657 65.1668 36.0833V34.6667H66.5834C67.3658 34.6667 68.0001 34.0324 68.0001 33.25C68.0001 32.4676 67.3658 31.8333 66.5834 31.8333H65.1668V30.4167C65.1668 29.6343 64.5325 29 63.7501 29Z" fill="white"/>
<path d="M65.8281 41.2073C65.5875 40.4628 64.744 40.1318 64.0244 40.4391C63.3049 40.7463 62.9744 41.5792 63.1999 42.3284C63.9102 44.6882 63.9235 47.2144 63.2219 49.5979C62.3863 52.4364 60.5887 54.8955 58.1377 56.5532C55.6867 58.2109 52.7352 58.9638 49.7896 58.6827C46.8441 58.4016 44.0882 57.1039 41.9951 55.0125C39.9019 52.9211 38.602 50.1663 38.3184 47.221C38.0349 44.2756 38.7853 41.3235 40.441 38.8711C42.0967 36.4188 44.5543 34.6192 47.3922 33.7812C49.7751 33.0776 52.3012 33.0889 54.6617 33.7972C55.4111 34.022 56.2437 33.6909 56.5503 32.9711C56.8569 32.2513 56.5253 31.408 55.7806 31.168C52.8077 30.2098 49.6035 30.1639 46.587 31.0546C43.116 32.0795 40.1099 34.2807 38.0847 37.2803C36.0596 40.2799 35.1417 43.8909 35.4885 47.4934C35.8353 51.096 37.4253 54.4655 39.9856 57.0236C42.5458 59.5818 45.9166 61.169 49.5195 61.5128C53.1224 61.8567 56.7326 60.9358 59.7305 58.9082C62.7284 56.8805 64.9271 53.8726 65.9492 50.4007C66.8374 47.3835 66.7888 44.1794 65.8281 41.2073Z" fill="white"/>
<path d="M50.2918 41.75H51.368C51.9472 41.75 52.4168 42.2196 52.4168 42.7988C52.4168 43.0369 52.3357 43.268 52.187 43.4539L47.0605 49.862C46.8596 50.1131 46.7501 50.4253 46.7501 50.7469V51.6667C46.7501 52.4491 47.3844 53.0833 48.1668 53.0833H53.8334C54.6158 53.0833 55.2501 52.4491 55.2501 51.6667C55.2501 50.8843 54.6158 50.25 53.8334 50.25H50.8711C50.6353 50.25 50.5027 49.9788 50.6474 49.7927L54.6533 44.6424C55.0401 44.145 55.2501 43.5329 55.2501 42.9029V41.75C55.2501 40.1852 53.9816 38.9167 52.4168 38.9167H49.5834C48.0186 38.9167 46.7501 40.1852 46.7501 41.75C46.7501 42.5324 47.3844 43.1667 48.1668 43.1667H48.8751C49.2663 43.1667 49.5834 42.8495 49.5834 42.4583C49.5834 42.0671 49.9006 41.75 50.2918 41.75Z" fill="white"/>
<defs>
<filter id="filter0_d_187_466" x="0" y="0" width="101" height="101" filterUnits="userSpaceOnUse" color-interpolation-filters="sRGB">
<feFlood flood-opacity="0" result="BackgroundImageFix"/>
<feColorMatrix in="SourceAlpha" type="matrix" values="0 0 0 0 0 0 0 0 0 0 0 0 0 0 0 0 0 0 127 0" result="hardAlpha"/>
<feOffset dy="4"/>
<feGaussianBlur stdDeviation="2"/>
<feComposite in2="hardAlpha" operator="out"/>
<feColorMatrix type="matrix" values="0 0 0 0 0 0 0 0 0 0 0 0 0 0 0 0 0 0 0.25 0"/>
<feBlend mode="normal" in2="BackgroundImageFix" result="effect1_dropShadow_187_466"/>
<feBlend mode="normal" in="SourceGraphic" in2="effect1_dropShadow_187_466" result="shape"/>
</filter>
</defs>
</svg>
