<svg width="79" height="79" viewBox="0 0 79 79" fill="none" xmlns="http://www.w3.org/2000/svg">
<g filter="url(#filter0_d_187_414)">
<circle cx="39.5" cy="35.5" r="35.5" fill="#D9D9D9"/>
<circle cx="39.5" cy="35.5" r="33.5" stroke="#CBCBCB" stroke-width="4"/>
</g>
<path d="M49 26C48.4477 26 48 26.4477 48 27V28H47C46.4477 28 46 28.4477 46 29C46 29.5523 46.4477 30 47 30H48V31C48 31.5523 48.4477 32 49 32C49.5523 32 50 31.5523 50 31V30H51C51.5523 30 52 29.5523 52 29C52 28.4477 51.5523 28 51 28H50V27C50 26.4477 49.5523 26 49 26Z" fill="white"/>
<path d="M50.4669 34.6169C50.297 34.0914 49.7016 33.8578 49.1937 34.0746C48.6857 34.2915 48.4525 34.8794 48.6117 35.4083C49.113 37.074 49.1224 38.8572 48.6271 40.5397C48.0373 42.5433 46.7684 44.2792 45.0383 45.4493C43.3082 46.6195 41.2248 47.1509 39.1456 46.9525C37.0663 46.754 35.121 45.8381 33.6435 44.3618C32.166 42.8855 31.2484 40.9409 31.0482 38.8619C30.8481 36.7828 31.3778 34.6989 32.5465 32.9678C33.7152 31.2368 35.4501 29.9665 37.4532 29.375C39.1353 28.8783 40.9185 28.8863 42.5846 29.3862C43.1136 29.545 43.7014 29.3112 43.9178 28.8031C44.1342 28.295 43.9001 27.6998 43.3745 27.5304C41.276 26.854 39.0142 26.8216 36.8849 27.4503C34.4347 28.1738 32.3128 29.7275 30.8833 31.8449C29.4538 33.9623 28.8058 36.5112 29.0506 39.0542C29.2955 41.5972 30.4178 43.9757 32.2251 45.7814C34.0323 47.5871 36.4117 48.7075 38.9549 48.9502C41.4981 49.193 44.0465 48.5429 46.1626 47.1117C48.2788 45.6804 49.8308 43.5572 50.5523 41.1064C51.1793 38.9766 51.145 36.7148 50.4669 34.6169Z" fill="white"/>
<path d="M39 33H41C42.1046 33 43 33.8954 43 35V36.1716C43 36.702 42.7893 37.2107 42.4142 37.5858L42.1414 37.8586C42.0633 37.9367 42.0633 38.0633 42.1414 38.1414L42.4142 38.4142C42.7893 38.7893 43 39.298 43 39.8284V41C43 42.1046 42.1046 43 41 43H39C37.8954 43 37 42.1046 37 41C37 40.4477 37.4477 40 38 40H38.5C38.7762 40 39 40.2239 39 40.5C39 40.7761 39.2239 41 39.5 41H40C40.5523 41 41 40.5523 41 40C41 39.4477 40.5523 39 40 39C39.4477 39 39 38.5523 39 38C39 37.4477 39.4477 37 40 37C40.5523 37 41 36.5523 41 36C41 35.4477 40.5523 35 40 35H39.5C39.2239 35 39 35.2239 39 35.5C39 35.7761 38.7762 36 38.5 36H38C37.4477 36 37 35.5523 37 35C37 33.8954 37.8954 33 39 33Z" fill="white"/>
<defs>
<filter id="filter0_d_187_414" x="0" y="0" width="79" height="79" filterUnits="userSpaceOnUse" color-interpolation-filters="sRGB">
<feFlood flood-opacity="0" result="BackgroundImageFix"/>
<feColorMatrix in="SourceAlpha" type="matrix" values="0 0 0 0 0 0 0 0 0 0 0 0 0 0 0 0 0 0 127 0" result="hardAlpha"/>
<feOffset dy="4"/>
<feGaussianBlur stdDeviation="2"/>
<feComposite in2="hardAlpha" operator="out"/>
<feColorMatrix type="matrix" values="0 0 0 0 0 0 0 0 0 0 0 0 0 0 0 0 0 0 0.25 0"/>
<feBlend mode="normal" in2="BackgroundImageFix" result="effect1_dropShadow_187_414"/>
<feBlend mode="normal" in="SourceGraphic" in2="effect1_dropShadow_187_414" result="shape"/>
</filter>
</defs>
</svg>
