<svg width="101" height="101" viewBox="0 0 101 101" fill="none" xmlns="http://www.w3.org/2000/svg">
<g filter="url(#filter0_d_187_488)">
<circle cx="50.5" cy="46.5" r="38.0932" fill="#4B89DC"/>
<circle cx="50.5" cy="46.5" r="45" stroke="#4B89DC" stroke-width="3"/>
</g>
<path d="M64.125 27C63.2276 27 62.5 27.7275 62.5 28.625V30.25H60.875C59.9776 30.25 59.25 30.9775 59.25 31.875C59.25 32.7725 59.9776 33.5 60.875 33.5H62.5V35.125C62.5 36.0225 63.2276 36.75 64.125 36.75C65.0225 36.75 65.75 36.0225 65.75 35.125V33.5H67.375C68.2725 33.5 69 32.7725 69 31.875C69 30.9775 68.2725 30.25 67.375 30.25H65.75V28.625C65.75 27.7275 65.0225 27 64.125 27Z" fill="white"/>
<path d="M66.5087 41.0025C66.2326 40.1485 65.2651 39.7689 64.4397 40.1213C63.6143 40.4737 63.2353 41.429 63.4939 42.2884C64.3086 44.9953 64.3239 47.8929 63.5191 50.627C62.5606 53.8829 60.4987 56.7037 57.6873 58.6052C54.8759 60.5066 51.4902 61.3703 48.1115 61.0478C44.7328 60.7253 41.5717 59.2368 39.1707 56.8379C36.7697 54.4389 35.2787 51.279 34.9534 47.9005C34.6281 44.5221 35.4889 41.1357 37.3881 38.3227C39.2873 35.5097 42.1064 33.4455 45.3615 32.4843C48.0948 31.6772 50.9925 31.6902 53.7 32.5026C54.5596 32.7606 55.5147 32.3807 55.8664 31.5551C56.2181 30.7294 55.8377 29.7622 54.9835 29.4868C51.5735 28.3877 47.8981 28.335 44.438 29.3567C40.4565 30.5324 37.0083 33.0573 34.6853 36.498C32.3624 39.9387 31.3094 44.0807 31.7073 48.213C32.1052 52.3454 33.929 56.2104 36.8657 59.1448C39.8025 62.0791 43.669 63.8997 47.8017 64.2941C51.9344 64.6886 56.0755 63.6322 59.5143 61.3064C62.9531 58.9806 65.4751 55.5304 66.6475 51.5479C67.6663 48.0869 67.6106 44.4116 66.5087 41.0025Z" fill="white"/>
<path d="M47.875 38.375H51.125C52.92 38.375 54.375 39.8301 54.375 41.625V43.5288C54.375 44.3908 54.0326 45.2174 53.4231 45.8269L52.9798 46.2702C52.8529 46.3971 52.8529 46.6029 52.9798 46.7298L53.4231 47.1731C54.0326 47.7826 54.375 48.6092 54.375 49.4712V51.375C54.375 53.1699 52.92 54.625 51.125 54.625H47.875C46.0801 54.625 44.625 53.1699 44.625 51.375C44.625 50.4775 45.3526 49.75 46.25 49.75H47.0625C47.5113 49.75 47.875 50.1138 47.875 50.5625C47.875 51.0112 48.2388 51.375 48.6875 51.375H49.5C50.3975 51.375 51.125 50.6475 51.125 49.75C51.125 48.8525 50.3975 48.125 49.5 48.125C48.6026 48.125 47.875 47.3975 47.875 46.5C47.875 45.6025 48.6026 44.875 49.5 44.875C50.3975 44.875 51.125 44.1475 51.125 43.25C51.125 42.3525 50.3975 41.625 49.5 41.625H48.6875C48.2388 41.625 47.875 41.9888 47.875 42.4375C47.875 42.8862 47.5113 43.25 47.0625 43.25H46.25C45.3526 43.25 44.625 42.5225 44.625 41.625C44.625 39.8301 46.0801 38.375 47.875 38.375Z" fill="white"/>
<defs>
<filter id="filter0_d_187_488" x="0" y="0" width="101" height="101" filterUnits="userSpaceOnUse" color-interpolation-filters="sRGB">
<feFlood flood-opacity="0" result="BackgroundImageFix"/>
<feColorMatrix in="SourceAlpha" type="matrix" values="0 0 0 0 0 0 0 0 0 0 0 0 0 0 0 0 0 0 127 0" result="hardAlpha"/>
<feOffset dy="4"/>
<feGaussianBlur stdDeviation="2"/>
<feComposite in2="hardAlpha" operator="out"/>
<feColorMatrix type="matrix" values="0 0 0 0 0 0 0 0 0 0 0 0 0 0 0 0 0 0 0.25 0"/>
<feBlend mode="normal" in2="BackgroundImageFix" result="effect1_dropShadow_187_488"/>
<feBlend mode="normal" in="SourceGraphic" in2="effect1_dropShadow_187_488" result="shape"/>
</filter>
</defs>
</svg>
