<svg width="101" height="101" viewBox="0 0 101 101" fill="none" xmlns="http://www.w3.org/2000/svg">
<g filter="url(#filter0_d_187_491)">
<circle cx="50.5" cy="46.5" r="38.0932" fill="#4B89DC"/>
<circle cx="50.5" cy="46.5" r="45" stroke="#4B89DC" stroke-width="3"/>
</g>
<path d="M64.913 27C63.9766 27 63.2174 27.7592 63.2174 28.6957V30.3913H61.5217C60.5853 30.3913 59.8261 31.1505 59.8261 32.087C59.8261 33.0234 60.5853 33.7826 61.5217 33.7826H63.2174V35.4783C63.2174 36.4147 63.9766 37.1739 64.913 37.1739C65.8495 37.1739 66.6087 36.4147 66.6087 35.4783V33.7826H68.3043C69.2408 33.7826 70 33.0234 70 32.087C70 31.1505 69.2408 30.3913 68.3043 30.3913H66.6087V28.6957C66.6087 27.7592 65.8495 27 64.913 27Z" fill="white"/>
<path d="M67.4003 41.6113C67.1123 40.7202 66.1027 40.324 65.2414 40.6917C64.3801 41.0595 63.9846 42.0564 64.2545 42.9531C65.1046 45.7777 65.1206 48.8013 64.2808 51.6542C63.2806 55.0517 61.1291 57.9951 58.1954 59.9793C55.2618 61.9634 51.7289 62.8646 48.2033 62.5281C44.6777 62.1916 41.3791 60.6384 38.8738 58.1351C36.3684 55.6318 34.8125 52.3346 34.4731 48.8092C34.1337 45.2839 35.0319 41.7503 37.0137 38.815C38.9954 35.8797 41.9371 33.7258 45.3337 32.7228C48.1859 31.8806 51.2096 31.8941 54.0348 32.7419C54.9318 33.011 55.9284 32.6147 56.2954 31.7531C56.6624 30.8915 56.2654 29.8822 55.3741 29.595C51.8158 28.448 47.9806 28.3931 44.3701 29.4592C40.2154 30.686 36.6174 33.3206 34.1934 36.9109C31.7694 40.5012 30.6707 44.8233 31.0859 49.1353C31.501 53.4474 33.4041 57.4804 36.4686 60.5423C39.533 63.6042 43.5676 65.504 47.88 65.9156C52.1924 66.3272 56.5135 65.2249 60.1018 62.798C63.6901 60.3711 66.3218 56.7708 67.5452 52.6152C68.6083 49.0038 68.5502 45.1686 67.4003 41.6113Z" fill="white"/>
<path fill-rule="evenodd" clip-rule="evenodd" d="M53.0435 52.4348V54.1304C53.0435 55.0669 52.2843 55.8261 51.3478 55.8261C50.4114 55.8261 49.6522 55.0669 49.6522 54.1304V52.4348H46.2609C45.3244 52.4348 44.5652 51.6756 44.5652 50.7391V49.4438C44.5652 49.1805 44.6265 48.9209 44.7443 48.6854L49.1835 39.8069C49.4708 39.2324 50.0579 38.8696 50.7002 38.8696H51.3478C52.2843 38.8696 53.0435 39.6287 53.0435 40.5652V49.0435C53.98 49.0435 54.7391 49.8026 54.7391 50.7391C54.7391 51.6756 53.98 52.4348 53.0435 52.4348ZM49.6522 45.6522L47.9565 49.0435H49.6522V45.6522Z" fill="white"/>
<defs>
<filter id="filter0_d_187_491" x="0" y="0" width="101" height="101" filterUnits="userSpaceOnUse" color-interpolation-filters="sRGB">
<feFlood flood-opacity="0" result="BackgroundImageFix"/>
<feColorMatrix in="SourceAlpha" type="matrix" values="0 0 0 0 0 0 0 0 0 0 0 0 0 0 0 0 0 0 127 0" result="hardAlpha"/>
<feOffset dy="4"/>
<feGaussianBlur stdDeviation="2"/>
<feComposite in2="hardAlpha" operator="out"/>
<feColorMatrix type="matrix" values="0 0 0 0 0 0 0 0 0 0 0 0 0 0 0 0 0 0 0.25 0"/>
<feBlend mode="normal" in2="BackgroundImageFix" result="effect1_dropShadow_187_491"/>
<feBlend mode="normal" in="SourceGraphic" in2="effect1_dropShadow_187_491" result="shape"/>
</filter>
</defs>
</svg>
