<svg width="94" height="63" viewBox="0 0 94 63" fill="none" xmlns="http://www.w3.org/2000/svg">
<g filter="url(#filter0_d_187_420)">
<rect x="4" width="86" height="55" rx="16" fill="#D9D9D9"/>
<rect x="6" y="2" width="82" height="51" rx="14" stroke="#CBCBCB" stroke-width="4"/>
</g>
<path d="M46 19.9999C45.4477 19.9999 45 20.4477 45 20.9999C45 21.5522 45.4477 21.9999 46 21.9999H53C53.5523 21.9999 54 21.5522 54 20.9999C54 20.4477 53.5523 19.9999 53 19.9999H46Z" fill="white"/>
<path d="M45 24.9999C45 24.4477 45.4477 23.9999 46 23.9999H48C48.5523 23.9999 49 24.4477 49 24.9999C49 25.5522 48.5523 25.9999 48 25.9999H46C45.4477 25.9999 45 25.5522 45 24.9999Z" fill="white"/>
<path d="M46 27.9999C45.4477 27.9999 45 28.4477 45 28.9999C45 29.5522 45.4477 29.9999 46 29.9999H48C48.5523 29.9999 49 29.5522 49 28.9999C49 28.4477 48.5523 27.9999 48 27.9999H46Z" fill="white"/>
<path d="M45 32.9999C45 32.4477 45.4477 31.9999 46 31.9999H48C48.5523 31.9999 49 32.4477 49 32.9999C49 33.5522 48.5523 33.9999 48 33.9999H46C45.4477 33.9999 45 33.5522 45 32.9999Z" fill="white"/>
<path d="M51 23.9999C50.4477 23.9999 50 24.4477 50 24.9999C50 25.5522 50.4477 25.9999 51 25.9999H53C53.5523 25.9999 54 25.5522 54 24.9999C54 24.4477 53.5523 23.9999 53 23.9999H51Z" fill="white"/>
<path d="M50 28.9999C50 28.4477 50.4477 27.9999 51 27.9999H53C53.5523 27.9999 54 28.4477 54 28.9999C54 29.5522 53.5523 29.9999 53 29.9999H51C50.4477 29.9999 50 29.5522 50 28.9999Z" fill="white"/>
<path d="M51 31.9999C50.4477 31.9999 50 32.4477 50 32.9999C50 33.5522 50.4477 33.9999 51 33.9999H53C53.5523 33.9999 54 33.5522 54 32.9999C54 32.4477 53.5523 31.9999 53 31.9999H51Z" fill="white"/>
<path fill-rule="evenodd" clip-rule="evenodd" d="M39.5001 37.9999H54C54.925 37.9999 55.6852 37.7658 56.2891 37.3632C56.8867 36.9648 57.2726 36.4408 57.5194 35.9472C57.7643 35.4574 57.8817 34.9798 57.9395 34.6331C57.9743 34.4246 57.9995 34.2117 58 33.9999V19C58 17.3431 56.6569 16 55 16H44C42.3431 16 41 17.3431 41 19L41 27.9999H39C37.3438 27.9999 36 29.3414 36 30.9989V33.9999C36 35.8387 36.7987 36.9204 37.7355 37.4824C38.1716 37.7441 38.5996 37.8709 38.9133 37.9336C39.1055 37.9721 39.3036 37.9999 39.5001 37.9999ZM56 19C56 18.4477 55.5523 18 55 18H44C43.4477 18 43 18.4477 43 19V33.9999C43 34.8051 42.8468 35.4652 42.596 35.9999H54C54.575 35.9999 54.9398 35.8591 55.1797 35.6991C55.4258 35.535 55.6024 35.3091 55.7306 35.0527C55.8917 34.7305 55.9901 34.3558 56 33.9938V19ZM39 29.9999H41L41 33.9999C41 35.1612 40.5487 35.5795 40.2355 35.7674C39.7645 36.05 39.2321 36.048 38.7645 35.7674C38.4513 35.5795 38 35.1612 38 33.9999V30.9989C38 30.4473 38.4471 29.9999 39 29.9999Z" fill="white"/>
<defs>
<filter id="filter0_d_187_420" x="0" y="0" width="94" height="63" filterUnits="userSpaceOnUse" color-interpolation-filters="sRGB">
<feFlood flood-opacity="0" result="BackgroundImageFix"/>
<feColorMatrix in="SourceAlpha" type="matrix" values="0 0 0 0 0 0 0 0 0 0 0 0 0 0 0 0 0 0 127 0" result="hardAlpha"/>
<feOffset dy="4"/>
<feGaussianBlur stdDeviation="2"/>
<feComposite in2="hardAlpha" operator="out"/>
<feColorMatrix type="matrix" values="0 0 0 0 0 0 0 0 0 0 0 0 0 0 0 0 0 0 0.25 0"/>
<feBlend mode="normal" in2="BackgroundImageFix" result="effect1_dropShadow_187_420"/>
<feBlend mode="normal" in="SourceGraphic" in2="effect1_dropShadow_187_420" result="shape"/>
</filter>
</defs>
</svg>
