<svg width="117" height="78" viewBox="0 0 117 78" fill="none" xmlns="http://www.w3.org/2000/svg">
<g filter="url(#filter0_d_187_494)">
<rect x="4" width="109" height="69.7093" rx="16" fill="#4B89DC"/>
<rect x="6" y="2" width="105" height="65.7093" rx="14" stroke="#4B6BDC" stroke-width="4"/>
</g>
<path d="M57.2325 25.349C56.5325 25.349 55.9651 25.9164 55.9651 26.6164C55.9651 27.3164 56.5325 27.8839 57.2325 27.8839H66.1046C66.8046 27.8839 67.3721 27.3164 67.3721 26.6164C67.3721 25.9164 66.8046 25.349 66.1046 25.349H57.2325Z" fill="white"/>
<path d="M55.9651 31.6862C55.9651 30.9862 56.5325 30.4187 57.2325 30.4187H59.7674C60.4674 30.4187 61.0348 30.9862 61.0348 31.6862C61.0348 32.3862 60.4674 32.9536 59.7674 32.9536H57.2325C56.5325 32.9536 55.9651 32.3862 55.9651 31.6862Z" fill="white"/>
<path d="M57.2325 35.4885C56.5325 35.4885 55.9651 36.056 55.9651 36.756C55.9651 37.4559 56.5325 38.0234 57.2325 38.0234H59.7674C60.4674 38.0234 61.0348 37.4559 61.0348 36.756C61.0348 36.056 60.4674 35.4885 59.7674 35.4885H57.2325Z" fill="white"/>
<path d="M55.9651 41.8257C55.9651 41.1257 56.5325 40.5583 57.2325 40.5583H59.7674C60.4674 40.5583 61.0348 41.1257 61.0348 41.8257C61.0348 42.5257 60.4674 43.0932 59.7674 43.0932H57.2325C56.5325 43.0932 55.9651 42.5257 55.9651 41.8257Z" fill="white"/>
<path d="M63.5697 30.4187C62.8697 30.4187 62.3023 30.9862 62.3023 31.6862C62.3023 32.3862 62.8697 32.9536 63.5697 32.9536H66.1046C66.8046 32.9536 67.3721 32.3862 67.3721 31.6862C67.3721 30.9862 66.8046 30.4187 66.1046 30.4187H63.5697Z" fill="white"/>
<path d="M62.3023 36.756C62.3023 36.056 62.8697 35.4885 63.5697 35.4885H66.1046C66.8046 35.4885 67.3721 36.056 67.3721 36.756C67.3721 37.4559 66.8046 38.0234 66.1046 38.0234H63.5697C62.8697 38.0234 62.3023 37.4559 62.3023 36.756Z" fill="white"/>
<path d="M63.5697 40.5583C62.8697 40.5583 62.3023 41.1257 62.3023 41.8257C62.3023 42.5257 62.8697 43.0932 63.5697 43.0932H66.1046C66.8046 43.0932 67.3721 42.5257 67.3721 41.8257C67.3721 41.1257 66.8046 40.5583 66.1046 40.5583H63.5697Z" fill="white"/>
<path fill-rule="evenodd" clip-rule="evenodd" d="M48.9943 48.1629H67.3721C68.5444 48.1629 69.508 47.8662 70.2733 47.356C71.0308 46.851 71.5199 46.1868 71.8327 45.5612C72.1431 44.9405 72.2919 44.3351 72.3652 43.8956C72.4092 43.6314 72.4413 43.3616 72.4418 43.0932V24.0816C72.4418 21.9817 70.7395 20.2793 68.6395 20.2793H54.6976C52.5977 20.2793 50.8953 21.9817 50.8953 24.0816L50.8953 35.4885H48.3604C46.2613 35.4885 44.5581 37.1887 44.5581 39.2896V43.0932C44.5581 45.4237 45.5705 46.7947 46.7578 47.507C47.3104 47.8386 47.8529 47.9994 48.2505 48.0789C48.4941 48.1276 48.7452 48.1629 48.9943 48.1629ZM69.9069 24.0816C69.9069 23.3816 69.3395 22.8142 68.6395 22.8142H54.6976C53.9977 22.8142 53.4302 23.3816 53.4302 24.0816V43.0932C53.4302 44.1137 53.2361 44.9503 52.9181 45.6281H67.3721C68.1009 45.6281 68.5632 45.4495 68.8672 45.2468C69.1792 45.0388 69.403 44.7525 69.5655 44.4275C69.7697 44.0191 69.8944 43.5442 69.9069 43.0854V24.0816ZM48.3604 38.0234H50.8953L50.8953 43.0932C50.8953 44.565 50.3234 45.0952 49.9264 45.3334C49.3294 45.6916 48.6546 45.689 48.0619 45.3334C47.6649 45.0952 47.093 44.565 47.093 43.0932V39.2896C47.093 38.5904 47.6596 38.0234 48.3604 38.0234Z" fill="white"/>
<defs>
<filter id="filter0_d_187_494" x="0" y="0" width="117" height="77.7095" filterUnits="userSpaceOnUse" color-interpolation-filters="sRGB">
<feFlood flood-opacity="0" result="BackgroundImageFix"/>
<feColorMatrix in="SourceAlpha" type="matrix" values="0 0 0 0 0 0 0 0 0 0 0 0 0 0 0 0 0 0 127 0" result="hardAlpha"/>
<feOffset dy="4"/>
<feGaussianBlur stdDeviation="2"/>
<feComposite in2="hardAlpha" operator="out"/>
<feColorMatrix type="matrix" values="0 0 0 0 0 0 0 0 0 0 0 0 0 0 0 0 0 0 0.25 0"/>
<feBlend mode="normal" in2="BackgroundImageFix" result="effect1_dropShadow_187_494"/>
<feBlend mode="normal" in="SourceGraphic" in2="effect1_dropShadow_187_494" result="shape"/>
</filter>
</defs>
</svg>
