<svg width="79" height="80" viewBox="0 0 79 80" fill="none" xmlns="http://www.w3.org/2000/svg">
<g filter="url(#filter0_d_62_1229)">
<ellipse cx="39.5" cy="36" rx="35.5" ry="36" fill="#D9D9D9"/>
<path d="M73 36C73 54.8041 57.9753 70 39.5 70C21.0247 70 6 54.8041 6 36C6 17.1959 21.0247 2 39.5 2C57.9753 2 73 17.1959 73 36Z" stroke="#CBCBCB" stroke-width="4"/>
</g>
<path fill-rule="evenodd" clip-rule="evenodd" d="M52.7918 26.8332C52.7918 25.765 51.4083 25.385 50.493 25.1336C50.4089 25.1105 50.3287 25.0885 50.254 25.0672C49.1109 24.7406 47.4875 24.4165 45.5418 24.4165C43.4589 24.4165 41.7415 25.1101 40.5621 25.784C40.3817 25.8871 40.1921 26.0295 40.0206 26.1582C39.7942 26.3283 39.5996 26.4744 39.5002 26.4744C39.4008 26.4744 39.2061 26.3283 38.9797 26.1582C38.8083 26.0295 38.6186 25.8871 38.4382 25.784C37.2588 25.1101 35.5414 24.4165 33.4585 24.4165C31.5128 24.4165 29.8894 24.7406 28.7463 25.0672C28.6745 25.0877 28.5974 25.1089 28.5166 25.1312C27.6053 25.3821 26.2085 25.7667 26.2085 26.8332V42.5415C26.2085 42.9603 26.4253 43.3492 26.7816 43.5694C27.3483 43.9196 28.0962 43.6131 28.759 43.3414C28.9902 43.2466 29.2111 43.1561 29.4102 43.0992C30.3817 42.8216 31.7792 42.5415 33.4585 42.5415C34.9826 42.5415 36.1235 43.0442 36.9789 43.5706C37.1986 43.7058 37.4206 43.8782 37.6485 44.0552C38.2119 44.4927 38.8112 44.9582 39.5002 44.9582C40.1911 44.9582 40.7874 44.4944 41.3498 44.0571C41.5779 43.8797 41.8005 43.7066 42.0215 43.5706C42.8768 43.0442 44.0178 42.5415 45.5418 42.5415C47.2212 42.5415 48.6186 42.8216 49.5901 43.0992C49.7985 43.1587 50.0246 43.2542 50.2594 43.3534C50.912 43.629 51.631 43.9326 52.2188 43.5694C52.575 43.3492 52.7918 42.9603 52.7918 42.5415V26.8332ZM29.027 27.5068C28.7842 27.5843 28.6252 27.8129 28.6252 28.0677V40.0029C28.6252 40.4064 29.0129 40.6967 29.4051 40.6023C30.4809 40.3432 31.8608 40.1248 33.4585 40.1248C35.5889 40.1248 37.1795 40.8491 38.2918 41.5411V28.5921C38.0489 28.3991 37.6922 28.1411 37.2392 27.8823C36.304 27.3479 35.0006 26.8332 33.4585 26.8332C31.5434 26.8332 29.9904 27.1993 29.027 27.5068ZM45.5418 40.1248C43.4114 40.1248 41.8208 40.8491 40.7085 41.5411V28.5921C40.9515 28.3991 41.3082 28.1411 41.7611 27.8823C42.6963 27.3479 43.9997 26.8332 45.5418 26.8332C47.4569 26.8332 49.0099 27.1993 49.9734 27.5068C50.2161 27.5843 50.3752 27.8129 50.3752 28.0677V40.003C50.3752 40.4064 49.9874 40.6967 49.5952 40.6023C48.5194 40.3432 47.1395 40.1248 45.5418 40.1248Z" fill="white"/>
<path d="M27.5224 46.6604C27.2496 46.0513 27.5222 45.3365 28.1313 45.0637C28.6971 44.8122 29.2828 44.6008 29.8719 44.4118C30.8493 44.0982 32.2008 43.7498 33.4585 43.7498C34.8685 43.7498 36.0719 44.5097 36.9442 45.0605C36.9889 45.0888 37.0328 45.1165 37.0758 45.1435C38.0921 45.7824 38.7756 46.1665 39.5002 46.1665C40.2239 46.1665 40.9033 45.7833 41.9183 45.1441C41.9599 45.1178 42.0024 45.091 42.0457 45.0636C42.9187 44.5115 44.1229 43.7498 45.5418 43.7498C46.8064 43.7498 48.1575 44.0979 49.1344 44.412C50.0118 44.694 50.6625 44.973 50.8298 45.0463C51.4412 45.3168 51.7579 46.0387 51.477 46.6626C51.2049 47.2668 50.479 47.5349 49.8766 47.2672C49.3943 47.0545 48.8963 46.8739 48.3948 46.7127C47.4923 46.4226 46.4268 46.1665 45.5418 46.1665C44.8663 46.1665 44.2171 46.5514 43.1335 47.2347C42.2352 47.8012 40.9952 48.5832 39.5002 48.5832C38.0041 48.5832 36.7601 47.8002 35.8593 47.2333C34.7734 46.5499 34.1258 46.1665 33.4585 46.1665C32.581 46.1665 31.5158 46.4223 30.6103 46.7129C30.1058 46.8748 29.6036 47.0547 29.1188 47.2694C28.5098 47.542 27.7951 47.2693 27.5224 46.6604Z" fill="white"/>
<defs>
<filter id="filter0_d_62_1229" x="0" y="0" width="79" height="80" filterUnits="userSpaceOnUse" color-interpolation-filters="sRGB">
<feFlood flood-opacity="0" result="BackgroundImageFix"/>
<feColorMatrix in="SourceAlpha" type="matrix" values="0 0 0 0 0 0 0 0 0 0 0 0 0 0 0 0 0 0 127 0" result="hardAlpha"/>
<feOffset dy="4"/>
<feGaussianBlur stdDeviation="2"/>
<feComposite in2="hardAlpha" operator="out"/>
<feColorMatrix type="matrix" values="0 0 0 0 0 0 0 0 0 0 0 0 0 0 0 0 0 0 0.25 0"/>
<feBlend mode="normal" in2="BackgroundImageFix" result="effect1_dropShadow_62_1229"/>
<feBlend mode="normal" in="SourceGraphic" in2="effect1_dropShadow_62_1229" result="shape"/>
</filter>
</defs>
</svg>
