<svg width="101" height="101" viewBox="0 0 101 101" fill="none" xmlns="http://www.w3.org/2000/svg">
<g filter="url(#filter0_d_62_1145)">
<circle cx="50.5002" cy="46.5" r="38.0932" fill="#4B89DC"/>
<circle cx="50.5" cy="46.5" r="45" stroke="#4B89DC" stroke-width="3"/>
</g>
<path fill-rule="evenodd" clip-rule="evenodd" d="M68.0859 37C68.0859 35.6739 66.3684 35.2023 65.2322 34.8902C65.1278 34.8616 65.0283 34.8342 64.9355 34.8077C63.5165 34.4023 61.5013 34 59.0859 34C56.5003 34 54.3683 34.861 52.9042 35.6976C52.6803 35.8256 52.4448 36.0024 52.2321 36.1621C51.9509 36.3732 51.7093 36.5546 51.5859 36.5546C51.4625 36.5546 51.2209 36.3732 50.9398 36.1621C50.727 36.0024 50.4916 35.8256 50.2676 35.6976C48.8035 34.861 46.6716 34 44.0859 34C41.6706 34 39.6554 34.4023 38.2364 34.8077C38.1471 34.8332 38.0515 34.8595 37.9512 34.8872C36.8199 35.1987 35.0859 35.6761 35.0859 37V56.5C35.0859 57.0199 35.3551 57.5027 35.7973 57.776C36.5009 58.2108 37.4293 57.8302 38.252 57.493C38.5391 57.3753 38.8132 57.2629 39.0605 57.1923C40.2665 56.8477 42.0013 56.5 44.0859 56.5C45.9779 56.5 47.3942 57.1241 48.456 57.7775C48.7288 57.9453 49.0044 58.1594 49.2873 58.3791C49.9867 58.9222 50.7307 59.5 51.5859 59.5C52.4436 59.5 53.1839 58.9243 53.882 58.3814C54.1652 58.1612 54.4415 57.9463 54.7158 57.7775C55.7776 57.1241 57.194 56.5 59.0859 56.5C61.1706 56.5 62.9054 56.8477 64.1114 57.1923C64.37 57.2662 64.6508 57.3848 64.9422 57.5078C65.7524 57.85 66.6449 58.2269 67.3745 57.776C67.8168 57.5027 68.0859 57.0199 68.0859 56.5V37ZM38.5847 37.8362C38.2834 37.9324 38.0859 38.2162 38.0859 38.5325V53.3487C38.0859 53.8495 38.5673 54.2099 39.0541 54.0927C40.3896 53.7711 42.1026 53.5 44.0859 53.5C46.7306 53.5 48.7051 54.3991 50.0859 55.2582V39.1835C49.7843 38.9439 49.3415 38.6237 48.7792 38.3024C47.6183 37.639 46.0003 37 44.0859 37C41.7086 37 39.7808 37.4545 38.5847 37.8362ZM59.0859 53.5C56.4413 53.5 54.4668 54.3991 53.0859 55.2582V39.1835C53.3876 38.9439 53.8304 38.6237 54.3926 38.3024C55.5535 37.639 57.1716 37 59.0859 37C61.4633 37 63.3911 37.4545 64.5872 37.8362C64.8885 37.9324 65.0859 38.2162 65.0859 38.5325V53.3487C65.0859 53.8495 64.6046 54.2099 64.1177 54.0927C62.7823 53.7711 61.0693 53.5 59.0859 53.5Z" fill="white"/>
<path d="M36.717 61.6131C36.3784 60.857 36.7168 59.9696 37.4728 59.631C38.1752 59.3188 38.9023 59.0564 39.6336 58.8217C40.847 58.4324 42.5246 58 44.0859 58C45.8363 58 47.3302 58.9433 48.413 59.627C48.4685 59.6621 48.523 59.6965 48.5764 59.7301C49.838 60.5232 50.6865 61 51.5859 61C52.4844 61 53.3278 60.5243 54.5877 59.7308C54.6394 59.6982 54.6922 59.6648 54.7459 59.6309C55.8296 58.9455 57.3246 58 59.0859 58C60.6557 58 62.333 58.4321 63.5457 58.822C64.6348 59.1721 65.4427 59.5184 65.6503 59.6094C66.4093 59.9452 66.8024 60.8414 66.4537 61.6158C66.116 62.3659 65.2148 62.6987 64.467 62.3664C63.8683 62.1023 63.2502 61.8782 62.6275 61.678C61.5073 61.3179 60.1846 61 59.0859 61C58.2473 61 57.4415 61.4779 56.0963 62.3261C54.9812 63.0293 53.4419 64 51.5859 64C49.7288 64 48.1845 63.0281 47.0662 62.3243C45.7183 61.476 44.9143 61 44.0859 61C42.9966 61 41.6743 61.3176 40.5502 61.6783C39.924 61.8792 39.3005 62.1026 38.6987 62.3691C37.9427 62.7075 37.0555 62.369 36.717 61.6131Z" fill="white"/>
<defs>
<filter id="filter0_d_62_1145" x="0" y="0" width="101" height="101" filterUnits="userSpaceOnUse" color-interpolation-filters="sRGB">
<feFlood flood-opacity="0" result="BackgroundImageFix"/>
<feColorMatrix in="SourceAlpha" type="matrix" values="0 0 0 0 0 0 0 0 0 0 0 0 0 0 0 0 0 0 127 0" result="hardAlpha"/>
<feOffset dy="4"/>
<feGaussianBlur stdDeviation="2"/>
<feComposite in2="hardAlpha" operator="out"/>
<feColorMatrix type="matrix" values="0 0 0 0 0 0 0 0 0 0 0 0 0 0 0 0 0 0 0.25 0"/>
<feBlend mode="normal" in2="BackgroundImageFix" result="effect1_dropShadow_62_1145"/>
<feBlend mode="normal" in="SourceGraphic" in2="effect1_dropShadow_62_1145" result="shape"/>
</filter>
</defs>
</svg>
